:FULLY-SPECIFIED
:FORCE-ALL-JOINTS-BE-3DOF
:DEGREES
1053
root 1.2068 15.1596 32.5514 4.90209 -3.43382 363.456
lfemur 8.70446 0.502833 5.6303
ltibia 0.191307 0 0
lfoot -30.473 -11.1785 0
ltoes -34.2041 0 0
rfemur -31.0829 -15.6727 -6.30907
rtibia 50.01 0 0
rfoot -21.8684 5.45501 0
rtoes -40.9612 0 0
lowerback -1.82154 -0.0564593 -0.25057
upperback -0.489752 -0.0381193 -6.03834
thorax 0.51483 -0.0209736 -6.11837
lowerneck -6.99043 0.763657 6.55312
upperneck 1.27327 0.335252 3.65227
head 1.58745 0.293072 0.0507696
lclavicle -3.99463e-15 4.48307e-14 0
lhumerus -58.6962 -46.8277 115.405
lradius 55.7935 0 0
lwrist 25.5193 0 0
lhand 37.4214 25.3113 0
lfingers 7.12502 0 0
lthumb 60.2254 38.8527 0
rclavicle -3.99463e-15 4.48307e-14 0
rhumerus 2.19209 -23.518 0.586096
rradius 27.4947 0 0
rwrist -9.72252 0 0
rhand -30.5438 -42.0618 0
rfingers 7.12502 0 0
rthumb -3.84265 -792.007 0
1054
root 1.20869 15.16 32.5556 4.90544 -3.43826 363.445
lfemur 8.67295 0.510939 5.61688
ltibia 0.28696 0 0
lfoot -30.5279 -11.1548 0
ltoes -34.2096 0 0
rfemur -31.0589 -15.6537 -6.30984
rtibia 49.9907 0 0
rfoot -21.8665 5.44975 0
rtoes -40.9532 0 0
lowerback -1.83223 -0.0579134 -0.258928
upperback -0.491624 -0.0396494 -6.03025
thorax 0.518765 -0.0217269 -6.10506
lowerneck -6.9963 0.762616 6.54333
upperneck 1.28727 0.333335 3.65612
head 1.593 0.292714 0.0535869
lclavicle -3.10957e-15 4.33918e-14 0
lhumerus -58.6876 -46.8228 115.412
lradius 55.7878 0 0
lwrist 25.5205 0 0
lhand 37.427 25.307 0
lfingers 7.12502 0 0
lthumb 60.2302 38.8432 0
rclavicle -3.10957e-15 4.33918e-14 0
rhumerus 2.19072 -23.4974 0.581536
rradius 27.4977 0 0
rwrist -9.69938 0 0
rhand -30.5535 -42.0497 0
rfingers 7.12502 0 0
rthumb -3.85194 -791.995 0
1055
root 1.21058 15.1604 32.5597 4.90879 -3.44271 363.434
lfemur 8.64145 0.519046 5.60346
ltibia 0.382613 0 0
lfoot -30.5828 -11.131 0
ltoes -34.215 0 0
rfemur -31.0349 -15.6348 -6.31062
rtibia 49.9715 0 0
rfoot -21.8645 5.44449 0
rtoes -40.9452 0 0
lowerback -1.84292 -0.0593675 -0.267287
upperback -0.493497 -0.0411795 -6.02216
thorax 0.522699 -0.0224801 -6.09174
lowerneck -7.00216 0.761576 6.53354
upperneck 1.30128 0.331417 3.65998
head 1.59854 0.292356 0.0564041
lclavicle -2.2245e-15 4.1953e-14 0
lhumerus -58.679 -46.8179 115.419
lradius 55.7821 0 0
lwrist 25.5218 0 0
lhand 37.4327 25.3026 0
lfingers 7.12502 0 0
lthumb 60.2351 38.8336 0
rclavicle -2.2245e-15 4.1953e-14 0
rhumerus 2.18935 -23.4767 0.576977
rradius 27.5008 0 0
rwrist -9.67623 0 0
rhand -30.5631 -42.0375 0
rfingers 7.12502 0 0
rthumb -3.86124 -791.982 0
1056
root 1.21248 15.1609 32.5638 4.91214 -3.44715 363.423
lfemur 8.60994 0.527152 5.59004
ltibia 0.478267 0 0
lfoot -30.6377 -11.1073 0
ltoes -34.2205 0 0
rfemur -31.0109 -15.6158 -6.31139
rtibia 49.9523 0 0
rfoot -21.8625 5.43924 0
rtoes -40.9372 0 0
lowerback -1.85361 -0.0608217 -0.275645
upperback -0.49537 -0.0427095 -6.01407
thorax 0.526634 -0.0232333 -6.07842
lowerneck -7.00803 0.760536 6.52375
upperneck 1.31528 0.3295 3.66383
head 1.60409 0.291997 0.0592214
lclavicle -1.33944e-15 4.05142e-14 0
lhumerus -58.6704 -46.813 115.426
lradius 55.7763 0 0
lwrist 25.5231 0 0
lhand 37.4383 25.2982 0
lfingers 7.12502 0 0
lthumb 60.2399 38.8241 0
rclavicle -1.33944e-15 4.05142e-14 0
rhumerus 2.18798 -23.4561 0.572418
rradius 27.5039 0 0
rwrist -9.65309 0 0
rhand -30.5727 -42.0253 0
rfingers 7.12502 0 0
rthumb -3.87053 -791.97 0
1057
root 1.21437 15.1613 32.5679 4.91548 -3.45159 363.412
lfemur 8.57844 0.535258 5.57662
ltibia 0.57392 0 0
lfoot -30.6927 -11.0835 0
ltoes -34.2259 0 0
rfemur -30.9869 -15.5968 -6.31216
rtibia 49.9331 0 0
rfoot -21.8605 5.43398 0
rtoes -40.9292 0 0
lowerback -1.86429 -0.0622758 -0.284003
upperback -0.497243 -0.0442396 -6.00599
thorax 0.530568 -0.0239865 -6.0651
lowerneck -7.01389 0.759496 6.51396
upperneck 1.32928 0.327582 3.66769
head 1.60963 0.291639 0.0620387
lclavicle -4.54371e-16 3.90754e-14 0
lhumerus -58.6618 -46.808 115.433
lradius 55.7706 0 0
lwrist 25.5244 0 0
lhand 37.444 25.2938 0
lfingers 7.12502 0 0
lthumb 60.2447 38.8145 0
rclavicle -4.54371e-16 3.90754e-14 0
rhumerus 2.1866 -23.4354 0.567859
rradius 27.507 0 0
rwrist -9.62994 0 0
rhand -30.5823 -42.0131 0
rfingers 7.12502 0 0
rthumb -3.87983 -791.958 0
1058
root 1.21626 15.1617 32.572 4.91883 -3.45603 363.401
lfemur 8.54693 0.543364 5.5632
ltibia 0.669573 0 0
lfoot -30.7476 -11.0598 0
ltoes -34.2314 0 0
rfemur -30.9629 -15.5778 -6.31294
rtibia 49.9138 0 0
rfoot -21.8585 5.42872 0
rtoes -40.9212 0 0
lowerback -1.87498 -0.0637299 -0.292361
upperback -0.499116 -0.0457697 -5.9979
thorax 0.534503 -0.0247398 -6.05179
lowerneck -7.01976 0.758455 6.50417
upperneck 1.34329 0.325665 3.67154
head 1.61518 0.291281 0.064856
lclavicle 4.30693e-16 3.76366e-14 0
lhumerus -58.6532 -46.8031 115.44
lradius 55.7649 0 0
lwrist 25.5256 0 0
lhand 37.4496 25.2894 0
lfingers 7.12502 0 0
lthumb 60.2495 38.805 0
rclavicle 4.30693e-16 3.76366e-14 0
rhumerus 2.18523 -23.4148 0.563299
rradius 27.5101 0 0
rwrist -9.6068 0 0
rhand -30.592 -42.0009 0
rfingers 7.12502 0 0
rthumb -3.88912 -791.945 0
1059
root 1.21816 15.1622 32.5762 4.92218 -3.46047 363.39
lfemur 8.51542 0.55147 5.54978
ltibia 0.765227 0 0
lfoot -30.8025 -11.036 0
ltoes -34.2368 0 0
rfemur -30.9389 -15.5588 -6.31371
rtibia 49.8946 0 0
rfoot -21.8566 5.42347 0
rtoes -40.9132 0 0
lowerback -1.88567 -0.0651841 -0.300719
upperback -0.500988 -0.0472997 -5.98981
thorax 0.538437 -0.025493 -6.03847
lowerneck -7.02563 0.757415 6.49438
upperneck 1.35729 0.323748 3.67539
head 1.62072 0.290922 0.0676733
lclavicle 1.31576e-15 3.61977e-14 0
lhumerus -58.6446 -46.7982 115.447
lradius 55.7591 0 0
lwrist 25.5269 0 0
lhand 37.4553 25.2851 0
lfingers 7.12502 0 0
lthumb 60.2543 38.7955 0
rclavicle 1.31576e-15 3.61977e-14 0
rhumerus 2.18386 -23.3941 0.55874
rradius 27.5131 0 0
rwrist -9.58366 0 0
rhand -30.6016 -41.9888 0
rfingers 7.12502 0 0
rthumb -3.89842 -791.933 0
1060
root 1.22005 15.1626 32.5803 4.92553 -3.46491 363.379
lfemur 8.48392 0.559576 5.53636
ltibia 0.86088 0 0
lfoot -30.8574 -11.0123 0
ltoes -34.2423 0 0
rfemur -30.9149 -15.5398 -6.31448
rtibia 49.8754 0 0
rfoot -21.8546 5.41821 0
rtoes -40.9052 0 0
lowerback -1.89635 -0.0666382 -0.309077
upperback -0.502861 -0.0488298 -5.98173
thorax 0.542372 -0.0262462 -6.02515
lowerneck -7.03149 0.756375 6.48459
upperneck 1.37129 0.32183 3.67925
head 1.62627 0.290564 0.0704906
lclavicle 2.20082e-15 3.47589e-14 0
lhumerus -58.636 -46.7933 115.454
lradius 55.7534 0 0
lwrist 25.5282 0 0
lhand 37.4609 25.2807 0
lfingers 7.12502 0 0
lthumb 60.2591 38.7859 0
rclavicle 2.20082e-15 3.47589e-14 0
rhumerus 2.18248 -23.3735 0.554181
rradius 27.5162 0 0
rwrist -9.56051 0 0
rhand -30.6112 -41.9766 0
rfingers 7.12502 0 0
rthumb -3.90771 -791.921 0
1061
root 1.22194 15.163 32.5844 4.92888 -3.46935 363.368
lfemur 8.45241 0.567682 5.52294
ltibia 0.956533 0 0
lfoot -30.9123 -10.9885 0
ltoes -34.2477 0 0
rfemur -30.8909 -15.5208 -6.31526
rtibia 49.8562 0 0
rfoot -21.8526 5.41295 0
rtoes -40.8972 0 0
lowerback -1.90704 -0.0680923 -0.317435
upperback -0.504734 -0.0503599 -5.97364
thorax 0.546306 -0.0269994 -6.01183
lowerneck -7.03736 0.755335 6.4748
upperneck 1.3853 0.319913 3.6831
head 1.63181 0.290206 0.0733079
lclavicle 3.08589e-15 3.33201e-14 0
lhumerus -58.6274 -46.7884 115.461
lradius 55.7477 0 0
lwrist 25.5295 0 0
lhand 37.4666 25.2763 0
lfingers 7.12502 0 0
lthumb 60.2639 38.7764 0
rclavicle 3.08589e-15 3.33201e-14 0
rhumerus 2.18111 -23.3528 0.549622
rradius 27.5193 0 0
rwrist -9.53737 0 0
rhand -30.6208 -41.9644 0
rfingers 7.12502 0 0
rthumb -3.91701 -791.908 0
